# xmcd
#
# Track frame offsets: 
#        150
#        13420
#        26400
#        39305
#        50970
#        63965
#        76625
#        88270
#        102285
#        115290
#        127392
#        140662
#        153490
#        165180
#        177655
#        189555
#        202532
#        215905
#        227400
#        240420
#        255087
#
# Disc length: 3550 seconds
#
# Revision: 2
# Processed by: cddbd v1.4PL0 Copyright (c) Steve Scherf et al.
# Submitted via: ExactAudioCopy v0.90b3
#
DISCID=1b0ddc15
DTITLE=Wilf Carter - Montana Slim - Disc 8
DYEAR=1900
DGENRE=Country
TTITLE0=Why Did We Ever Part - 1940
TTITLE1=La Verne, My Brown Eyed Rose - 1940
TTITLE2=The Last Letter - 1940
TTITLE3=Ride For The Open Range - 1940
TTITLE4=Call Of The Range - 1940
TTITLE5=Streamlined Yodel Song - 1940
TTITLE6=My Old Lasso Is Headed Straight For You - 1940
TTITLE7=Memories That Never Die - 1942
TTITLE8=I'm Thinking Tonight Of My Blue Eyes - 1942
TTITLE9=The Prisoner's Song - 1943
TTITLE10=I May Be Wrong - 1943
TTITLE11=Old Buddies - 1943
TTITLE12=Swettheart's Farebell - 1943
TTITLE13=Sittin' By The Old Corral - 1942
TTITLE14=I'll Always Keep Smiling For You - 1942
TTITLE15=That First Love Of Mine - 1942
TTITLE16=Waiting For A Train - 1942
TTITLE17=West Of Rainbow Trail - 1942
TTITLE18=Yodelling My Babies To Sleep - 1942
TTITLE19=Just One More Ride - 1942
TTITLE20=Rescue From The Moose River Goldmine (Take 2) - 1934
EXTD=
EXTT0=
EXTT1=
EXTT2=
EXTT3=
EXTT4=
EXTT5=
EXTT6=
EXTT7=
EXTT8=
EXTT9=
EXTT10=
EXTT11=
EXTT12=
EXTT13=
EXTT14=
EXTT15=
EXTT16=
EXTT17=
EXTT18=
EXTT19=
EXTT20=
PLAYORDER=
